<svg xmlns="http://www.w3.org/2000/svg" viewBox="0 0 36 36" width="36" height="36">
  <circle cx="18" cy="18" r="18" fill="#0d9488" />
  <g transform="translate(6, 6)" fill="none" stroke="#ffffff" stroke-width="2" stroke-linecap="round" stroke-linejoin="round">
    <path d="M12 5a3 3 0 1 0-5.997.125 4 4 0 0 0-2.526 5.77 4 4 0 0 0 .556 6.588A4 4 0 1 0 12 18Z"/>
    <path d="M12 5a3 3 0 1 1 5.997.125 4 4 0 0 1 2.526 5.77 4 4 0 0 1-.556 6.588A4 4 0 1 1 12 18Z"/>
    <path d="M12 5v14"/>
    <path d="M12 9h4"/>
    <path d="M12 14h4"/>
    <path d="M12 9H8"/>
    <path d="M12 14H8"/>
  </g>
</svg>
